# xmcd CD database file
#
# Track frame offsets:
#	150
#	20267
#	35662
#	54232
#	74112
#
# Disc length: 1171 seconds
#
# Revision: 0
# Processed by: cddbd v1.5.1PL0 Copyright (c) Steve Scherf et al.
# Submitted via: CDex 1.50
#
DISCID=40049105
DTITLE=安部恭弘 - 4 New Comer
DYEAR=2002
DGENRE=JPop
TTITLE0=Shake It Up!
TTITLE1=Make a Wonderful World for New Comer
TTITLE2=SENTIMENTAL FALLING
TTITLE3=ルージュに融けたい
TTITLE4=I feel for you
EXTD=YEAR: 2002
EXTT0=
EXTT1=
EXTT2=
EXTT3=
EXTT4=
PLAYORDER=
